<?xml version="1.0" encoding="iso-8859-1"?>
<!-- Generator: Adobe Illustrator 19.0.0, SVG Export Plug-In . SVG Version: 6.00 Build 0)  -->
<svg xmlns="http://www.w3.org/2000/svg" xmlns:xlink="http://www.w3.org/1999/xlink" version="1.1" id="Capa_1" x="0px" y="0px" viewBox="0 0 512 512" style="enable-background:new 0 0 512 512;" xml:space="preserve" width="512px" height="512px">
<g>
	<g>
		<path d="M509.791,317.02L213.854,21.083C200.267,7.498,182.204,0.016,162.99,0.016s-37.278,7.482-50.864,21.069l-91.058,91.058    C7.482,125.728,0,143.791,0,163.005c0,19.214,7.482,37.278,21.069,50.864l295.936,295.937c2.906,2.905,7.766,2.905,10.671,0    L509.791,327.69c1.415-1.414,2.209-3.334,2.209-5.335S511.205,318.434,509.791,317.02z M31.739,203.198    c-10.736-10.736-16.648-25.01-16.648-40.194c0-15.183,5.913-29.457,16.648-40.194l91.058-91.058    c10.736-10.736,25.01-16.648,40.194-16.648s29.457,5.913,40.194,16.648l34.501,34.503L66.241,237.7L31.739,203.198z     M140.742,312.202l-63.83-63.831l63.83-63.83V312.202z M396.368,419.773l-74.028,74.026l-46.046-46.046V250.945    c0-4.167-3.377-7.545-7.545-7.545s-7.545,3.378-7.545,7.545v181.718l-105.37-105.371V169.451l92.522-92.522l12.848,12.848v125.957    c0,4.167,3.377,7.545,7.545,7.545c4.168,0,7.545-3.378,7.545-7.545V104.867l120.073,120.072V419.773z M411.457,404.681V240.029    l82.326,82.326L411.457,404.681z" fill="#FFFFFF" transform="rotate(-90 256 256)"/>
	</g>
</g>
<g>
</g>
<g>
</g>
<g>
</g>
<g>
</g>
<g>
</g>
<g>
</g>
<g>
</g>
<g>
</g>
<g>
</g>
<g>
</g>
<g>
</g>
<g>
</g>
<g>
</g>
<g>
</g>
<g>
</g>
</svg>
